<svg width="505" height="391" viewBox="0 0 505 391" fill="none" xmlns="http://www.w3.org/2000/svg">
<path d="M370.704 248.881C373.844 246.635 377.136 244.607 380.555 242.815C398.288 233.697 414.892 224.336 428.742 209.973C445.146 192.959 456.644 169.981 456.647 145.873C456.649 121.765 443.678 97.0609 422.333 87.0659C395.77 74.6215 365.382 86.4542 336.479 89.437C299.218 93.2818 262.173 81.932 225.405 74.0957C188.636 66.2595 148.674 62.2706 115.27 79.523C88.383 93.4259 68.584 120.913 63.4082 151.545C58.2324 182.177 67.806 215.218 88.484 238.093C118.314 271.096 165.237 279.984 208.748 282.077C240.807 283.629 272.94 282.515 304.815 278.745C319.178 277.044 332.622 274.119 345.307 266.97C354.441 261.831 362.232 254.829 370.704 248.881Z" stroke="#F4EBD7" stroke-width="2.6" stroke-miterlimit="10"/>
<path d="M173.26 279.134C150.862 276.482 128.322 271.065 108.533 259.21C88.7444 247.355 71.8503 228.396 65.2574 205.216C58.6645 182.036 63.8757 154.71 80.8329 139.253C101.945 120.016 133.225 123.075 160.716 118.019C196.156 111.517 227.241 90.4659 259.034 72.8647C290.826 55.2635 326.615 40.5036 362.159 47.9531C390.776 53.9516 416.559 74.9678 429.707 103.006C442.855 131.045 443.052 165.443 430.212 193.085C411.701 232.984 370.825 254.374 331.248 268.308C302.109 278.568 272.14 286.294 241.675 291.399C230.492 293.27 219.08 294.786 207.826 293.014C196.573 291.242 185.314 285.795 178.345 276.043L173.26 279.134Z" fill="#F4EBD7"/>
<path d="M0 323.836H505" stroke="#102048" stroke-width="5" stroke-miterlimit="10"/>
<mask id="mask0_34_2212" style="mask-type:luminance" maskUnits="userSpaceOnUse" x="267" y="22" width="151" height="139">
<path d="M267.364 22.6977V144.076V160.292L286.191 144.076H417.253V22.6977H267.364Z" fill="white"/>
</mask>
<g mask="url(#mask0_34_2212)">
<path d="M417.253 22.7004H267.364V166.965H417.253V22.7004Z" fill="white"/>
<g opacity="0.6">
<path d="M309.902 112.938C296.358 104.483 290.786 90.4406 290.738 76.9067C290.697 65.5315 295.63 51.4845 311.936 53.9845C322.896 55.6655 332.063 62.3718 342.569 65.3343C351.074 67.7332 360.105 67.033 368.718 66.5983C382.217 65.9334 396.901 73.7848 398.328 82.7965C400.241 94.8744 398.47 108.257 387.833 115.291C369.201 127.622 330.863 126.022 309.902 112.938Z" stroke="#1F3C88" stroke-width="2.5" stroke-miterlimit="10" stroke-dasharray="19.91 19.91"/>
</g>
<path d="M321.242 126.849C305.467 124.387 294.842 113.664 289.49 101.224C284.993 90.7692 284.026 75.9183 300.005 71.8207C310.749 69.0629 321.808 71.6336 332.634 70.2358C341.399 69.1058 349.43 64.9274 357.187 61.1356C369.345 55.2256 383.44 52.7939 390.783 64.4218C397.305 74.7656 395.939 88.9719 388.911 99.6165C376.589 118.264 345.651 130.658 321.242 126.849Z" fill="#D3DFFF"/>
<path d="M299.525 39.1813C300.32 35.8116 298.234 32.4353 294.867 31.6399C291.5 30.8446 288.126 32.9315 287.331 36.3012C286.536 39.6709 288.622 43.0473 291.989 43.8426C295.356 44.6379 298.73 42.551 299.525 39.1813Z" fill="#EE6F57"/>
<path d="M294.8 40.4228L293.43 38.5699L292.049 40.4228H290.669L292.748 37.7079L290.758 35.0764H292.15L293.461 36.8282L294.769 35.0764H296.121L294.12 37.6877L296.212 40.4228H294.8Z" fill="white"/>
<path d="M315.65 39.2969C316.504 35.9418 314.478 32.5291 311.125 31.6746C307.772 30.82 304.362 32.847 303.508 36.2022C302.654 39.5573 304.68 42.97 308.033 43.8246C311.385 44.6791 314.796 42.652 315.65 39.2969Z" fill="#FBC343"/>
<path d="M312.1 37.0608H307.056V38.4359H312.1V37.0608Z" fill="white"/>
<path d="M366.778 111.26C351.099 120.246 343.488 117.776 341.013 116.384C338.555 117.776 330.944 120.246 315.265 111.26C300.245 102.645 309.001 84.1236 314.917 72.8546C318.13 66.7322 320.608 60.2711 326.243 55.8601C331.548 51.7094 337.487 50.4278 344.453 50.7716C354.03 51.2443 359.973 56.9521 362.911 63.8C365.248 69.2474 368.15 74.3409 370.701 79.6772C373.093 84.6746 375.021 90.1145 375.2 95.663C375.425 102.119 372.641 107.903 366.778 111.26Z" fill="#6F3428"/>
<path d="M370.525 110.168C360.926 99.3562 343.244 101.611 341.357 101.887C339.475 101.611 321.79 99.3587 312.189 110.168C304.957 118.307 305.05 150.8 305.05 150.8C305.05 149.998 338.689 149.761 341.357 149.746C344.024 149.73 377.663 149.998 377.663 150.8C377.663 150.8 377.757 118.307 370.525 110.168Z" fill="#EE6F57"/>
<path d="M326.458 77.5513C322.689 77.9355 319.552 87.1216 329.742 87.3137L332.179 84.4244L326.458 77.5513Z" fill="#E28B6D"/>
<path d="M356.343 77.5513C360.592 77.7737 363.611 87.1216 353.418 87.3137L350.981 84.4244L356.343 77.5513Z" fill="#E28B6D"/>
<path d="M332.872 91.2798H349.854V101.993C349.854 104.245 348.96 106.404 347.369 107.997C345.778 109.589 343.619 110.484 341.369 110.484C340.255 110.484 339.152 110.264 338.122 109.837C337.093 109.411 336.157 108.785 335.369 107.997C334.581 107.208 333.956 106.272 333.53 105.242C333.104 104.212 332.884 103.108 332.884 101.993V91.2798H332.872Z" fill="#F9B384"/>
<path d="M349.796 93.5523C344.213 102.652 338.545 102.493 332.798 93.8658L349.796 93.5523Z" fill="#E28B6D"/>
<path d="M357.725 70.7464C357.642 71.578 357.543 72.3945 357.44 73.2034C355.671 86.6665 351.087 97.2176 341.106 97.2176C330.863 97.2176 327.297 87.1064 325.425 73.0341C325.266 71.8864 325.129 70.6984 324.993 69.4951L345.14 61.4365L357.725 70.7464Z" fill="#F9B384"/>
<path d="M323.356 77.2353C328.486 78.9668 338.277 73.1731 338.277 73.1731C337.519 70.9688 338.59 68.8 340.732 66.6513C340.604 68.8354 341.109 72.258 343.061 73.5194C343.061 73.5194 344.383 73.8328 346.429 73.393C345.923 70.898 346.292 68.7115 347.813 66.9344C347.813 66.9344 350.112 73.2034 351.243 74.6215C352.678 76.4137 357.834 79.121 362.449 76.8561L353.86 57.392L331.103 56.9193L320.805 66.4643L323.356 77.2353Z" fill="#6F3428"/>
<path d="M335.499 79.6468C336.248 79.6468 336.855 78.8161 336.855 77.7914C336.855 76.7667 336.248 75.936 335.499 75.936C334.75 75.936 334.142 76.7667 334.142 77.7914C334.142 78.8161 334.75 79.6468 335.499 79.6468Z" fill="#6F3428"/>
<path d="M346.894 79.6468C347.643 79.6468 348.25 78.8161 348.25 77.7914C348.25 76.7667 347.643 75.936 346.894 75.936C346.144 75.936 345.537 76.7667 345.537 77.7914C345.537 78.8161 346.144 79.6468 346.894 79.6468Z" fill="#6F3428"/>
<path d="M342.978 82.7939C342.978 84.5963 343.122 86.0144 341.627 86.0548C340.205 86.0927 340.273 84.5963 340.273 82.7939C340.273 80.9916 340.879 79.5356 341.627 79.5356C342.374 79.5356 342.978 80.9992 342.978 82.7939Z" fill="#E28B6D"/>
<path d="M337.451 89.0882L346.01 88.8531C346.01 88.8531 342.435 95.7035 337.451 89.0882Z" fill="white"/>
<path opacity="0.3" d="M349.771 87.8496C351.773 87.8496 353.395 86.2255 353.395 84.2222C353.395 82.2188 351.773 80.5947 349.771 80.5947C347.769 80.5947 346.146 82.2188 346.146 84.2222C346.146 86.2255 347.769 87.8496 349.771 87.8496Z" fill="#EE6F57"/>
<path opacity="0.3" d="M337.79 85.1934C338.109 83.2157 336.766 81.3533 334.789 81.0337C332.813 80.7141 330.952 82.0583 330.633 84.036C330.313 86.0137 331.657 87.876 333.633 88.1956C335.609 88.5152 337.47 87.1711 337.79 85.1934Z" fill="#EE6F57"/>
<g opacity="0.4">
<path d="M331.343 110.433C331.964 111.139 332.716 111.716 333.559 112.132C334.396 112.571 335.277 112.921 336.188 113.173C338.014 113.684 339.908 113.905 341.801 113.828C343.685 113.764 345.538 113.335 347.257 112.564C348.974 111.765 350.471 110.562 351.622 109.058L351.994 109.311C351.5 110.19 350.882 110.994 350.16 111.697C349.419 112.392 348.59 112.987 347.694 113.466C345.882 114.396 343.883 114.907 341.847 114.96C339.827 115.043 337.81 114.748 335.898 114.091C334.942 113.765 334.025 113.332 333.167 112.799C332.293 112.265 331.546 111.546 330.98 110.691L331.343 110.433Z" fill="#6F3428"/>
</g>
<g opacity="0.4">
<path d="M321.739 124.225C321.813 126.151 321.818 128.075 321.808 129.998C321.798 131.922 321.76 133.843 321.707 135.767C321.654 137.69 321.568 139.609 321.454 141.528L321.262 144.407C321.174 145.365 321.105 146.325 320.994 147.283L320.552 147.268C320.502 146.305 320.497 145.345 320.471 144.382V141.495C320.471 139.574 320.524 137.65 320.59 135.729C320.656 133.808 320.734 131.887 320.863 129.968C320.992 128.049 321.116 126.128 321.305 124.212L321.739 124.225Z" fill="#6F3428"/>
</g>
<g opacity="0.4">
<path d="M361.825 123.257C362.148 125.183 362.403 127.112 362.643 129.045C362.883 130.979 363.093 132.91 363.29 134.847C363.487 136.783 363.654 138.722 363.795 140.661L363.98 143.575C364.015 144.548 364.073 145.522 364.086 146.497L363.646 146.54C363.472 145.58 363.34 144.614 363.191 143.651L362.81 140.754C362.557 138.823 362.365 136.889 362.181 134.94C361.997 132.991 361.825 131.065 361.704 129.126C361.582 127.187 361.451 125.241 361.398 123.289L361.825 123.257Z" fill="#6F3428"/>
</g>
</g>
<path d="M267.364 22.7003V144.078V160.294L286.191 144.078H417.253V22.7003H267.364Z" stroke="#708CD5" stroke-width="3.5" stroke-miterlimit="10"/>
<path opacity="0.15" d="M61.4657 351.837C74.719 351.837 85.4629 349.789 85.4629 347.264C85.4629 344.738 74.719 342.691 61.4657 342.691C48.2124 342.691 37.4685 344.738 37.4685 347.264C37.4685 349.789 48.2124 351.837 61.4657 351.837Z" fill="#1F3C88"/>
<path d="M50.4573 338.363C45.2664 338.363 39.4868 330.757 39.4868 325.603C39.4868 320.363 43.6598 316.101 48.7902 316.101C53.9205 316.101 58.0986 320.363 58.0986 325.603C58.0986 330.537 56.0222 338.363 50.4573 338.363ZM48.7902 319.261C45.4002 319.261 42.6443 322.104 42.6443 325.603C42.6443 329.46 47.3175 335.209 50.4573 335.209C53.3446 335.209 54.9385 329.531 54.9385 325.603C54.9385 322.104 52.1801 319.261 48.7902 319.261Z" fill="#1F3C88"/>
<path d="M68.4097 346.584H54.7464C53.652 346.584 52.5975 346.172 51.7923 345.43C50.987 344.689 50.4898 343.671 50.3991 342.58L47.5725 308.502H76.1494L72.7494 342.651C72.6422 343.728 72.1388 344.727 71.3369 345.454C70.5349 346.181 69.4917 346.583 68.4097 346.584Z" fill="#1F3C88"/>
<path d="M50.8867 267.648C49.9293 270.853 49.5024 274.154 50.0455 277.329C50.3155 278.912 50.7664 280.458 51.3894 281.938C52.0435 283.417 52.8307 284.834 53.7411 286.172C54.6732 287.52 55.697 288.803 56.8052 290.011C57.0729 290.302 57.3634 290.661 57.6565 291.023C57.9495 291.384 58.2475 291.713 58.5153 292.084L59.2731 293.252C59.5119 293.658 59.7213 294.08 59.8996 294.516C60.1005 294.949 60.2587 295.4 60.3719 295.863C60.5076 296.332 60.5922 296.814 60.6245 297.302C60.6549 297.546 60.6549 297.793 60.6245 298.037L60.574 298.773C60.5386 299.026 60.473 299.253 60.4199 299.493C60.3752 299.733 60.3058 299.968 60.2128 300.193L59.9375 300.863C59.8238 301.076 59.7025 301.28 59.5838 301.485C59.4681 301.691 59.3354 301.887 59.1872 302.072C59.0532 302.263 58.9055 302.445 58.7452 302.615C58.133 303.309 57.4079 303.895 56.6006 304.347L56.0752 303.51C57.2422 302.481 58.2021 301.096 58.5254 299.668C58.5796 299.494 58.6127 299.314 58.6239 299.132C58.6416 298.95 58.6795 298.773 58.6845 298.593L58.6618 298.05C58.667 297.869 58.6458 297.689 58.5987 297.514C58.5479 297.152 58.4581 296.797 58.3309 296.455C58.22 296.104 58.0736 295.765 57.8939 295.444C57.7204 295.104 57.529 294.774 57.3205 294.455L56.6435 293.507C56.3909 293.201 56.1131 292.916 55.8529 292.618L55.0142 291.705C54.4156 291.06 53.8169 290.416 53.2688 289.721C52.7004 289.039 52.1667 288.33 51.6698 287.595C50.6699 286.109 49.8299 284.521 49.164 282.858C48.5139 281.172 48.0941 279.406 47.9161 277.607C47.5473 273.998 48.4036 270.378 49.9849 267.281L50.8867 267.648Z" fill="#D3DFFF"/>
<path d="M63.297 266.672C65.1442 268.169 66.4966 270.189 67.1769 272.468C67.5111 273.627 67.6811 274.827 67.6821 276.033C67.6731 277.224 67.5342 278.41 67.2679 279.571C66.9934 280.708 66.6242 281.819 66.164 282.893L65.8659 283.626C65.7775 283.856 65.6689 284.084 65.5931 284.314L65.4239 284.994C65.3532 285.226 65.3456 285.446 65.2951 285.674C65.259 285.893 65.2438 286.116 65.2496 286.338C65.2461 286.554 65.2647 286.769 65.3052 286.98C65.338 287.19 65.3887 287.396 65.4567 287.597C65.5393 287.794 65.6364 287.984 65.7472 288.166C66.1867 288.924 67.0279 289.546 67.9095 289.936L67.715 290.904C66.4321 290.78 65.2383 290.192 64.3579 289.25C64.1351 288.995 63.934 288.721 63.7567 288.431C63.594 288.131 63.4571 287.817 63.3475 287.494C63.2409 287.173 63.1689 286.841 63.1328 286.505C63.0847 286.179 63.0678 285.849 63.0823 285.519C63.0852 285.198 63.1114 284.877 63.1606 284.559L63.3475 283.639C63.4258 283.338 63.5319 283.057 63.6228 282.764C63.7138 282.471 63.8123 282.173 63.9032 281.945C64.2794 280.976 64.5924 279.984 64.8404 278.975C65.0758 277.985 65.2262 276.977 65.29 275.962C65.3332 274.958 65.2671 273.953 65.093 272.964C64.7444 270.977 63.8123 269.104 62.5872 267.329L63.297 266.672Z" fill="#D3DFFF"/>
<path opacity="0.15" d="M426.004 354.069C452.51 354.069 473.998 350.885 473.998 346.958C473.998 343.031 452.51 339.847 426.004 339.847C399.497 339.847 378.009 343.031 378.009 346.958C378.009 350.885 399.497 354.069 426.004 354.069Z" fill="#1F3C88"/>
<path d="M429.06 231.151H422.323V297.084H429.06V231.151Z" fill="#27481F"/>
<path d="M427.373 226.723C427.303 230.529 427.002 234.328 426.471 238.098C426.186 240.095 425.946 241.247 425.946 241.247C407.556 235.274 399.119 223.869 395.608 212.36C395.28 211.31 395.002 210.256 394.762 209.205C391.049 193.194 396.025 177.936 396.025 177.936C404.457 179.705 410.676 183.378 415.268 188.11C416.056 188.922 416.784 189.753 417.478 190.62C425.953 201.26 427.575 215.916 427.373 226.723Z" fill="#49883A"/>
<path d="M451.213 194.847C450.847 207.648 445.871 222.562 430.437 236.882C429.255 237.981 428.004 239.084 426.691 240.168C426.552 240.287 426.413 240.401 426.274 240.514C426.274 240.514 423.718 236.763 421.083 230.656C421.045 230.565 421.007 230.484 420.977 230.403C419.958 228.027 419.066 225.599 418.304 223.128C417.595 220.841 417.005 218.519 416.536 216.171C414.68 206.75 414.675 195.575 419.82 184.516C423.672 176.186 430.429 167.928 441.519 160.514C441.506 160.517 451.782 175.203 451.213 194.847Z" fill="#49883A"/>
<path opacity="0.5" d="M430.434 236.882C429.252 237.981 428.002 239.084 426.688 240.168C426.549 240.287 426.41 240.401 426.272 240.514C426.272 240.514 423.715 236.763 421.081 230.656C421.045 230.572 421.01 230.479 420.974 230.403C420.752 229.882 420.527 229.344 420.308 228.79C420.222 228.578 420.138 228.355 420.055 228.141C419.911 227.769 419.765 227.4 419.623 227.016C419.509 226.715 419.401 226.399 419.292 226.088C419.184 225.777 419.057 225.446 418.946 225.115C418.727 224.468 418.512 223.805 418.302 223.128C417.593 220.841 417.002 218.519 416.534 216.171C415.018 208.487 414.735 199.634 417.476 190.641C416.786 189.773 416.054 188.942 415.266 188.13C413.497 192.807 410.62 203.522 410.277 213.186C406.025 211.52 400.915 210.153 394.759 209.225C395.012 210.277 395.265 211.331 395.606 212.38C392.985 211.753 390.146 211.209 387.088 210.749C389.505 219.003 399.213 245.292 424.516 245.684C425.161 245.697 425.813 245.691 426.474 245.666C427.517 245.633 428.583 245.55 429.682 245.413C429.677 245.413 430.821 241.831 430.434 236.882Z" fill="#27481F"/>
<path d="M426.645 244.276C426.649 244.297 426.649 244.318 426.645 244.339C426.645 244.498 426.62 244.65 426.602 244.794C426.59 244.863 426.582 244.933 426.577 245.004C426.564 245.122 426.552 245.236 426.532 245.35C426.489 245.699 426.438 246.02 426.388 246.331C426.355 246.533 426.317 246.728 426.279 246.92C426.109 247.839 425.871 248.745 425.567 249.63C423.844 249.742 422.116 249.742 420.393 249.63C390.43 247.607 384.271 210.345 384.271 210.345C385.236 210.466 386.179 210.599 387.1 210.744C390.162 211.199 393.001 211.743 395.618 212.375C406.45 214.953 413.616 218.838 418.314 223.136C419.638 224.337 420.842 225.664 421.909 227.099C424.33 230.329 425.902 234.116 426.481 238.113C426.587 238.823 426.658 239.511 426.701 240.181C426.789 241.545 426.77 242.914 426.645 244.276Z" fill="#49883A"/>
<path opacity="0.38" d="M451.213 194.847C451.012 201.911 449.399 208.864 446.47 215.294C443.256 222.418 438.154 229.723 430.437 236.882C430.404 236.907 430.374 236.94 430.341 236.965C429.886 237.387 429.419 237.812 428.939 238.229C428.8 238.356 428.661 238.482 428.517 238.608C427.923 239.129 427.317 239.652 426.691 240.171C426.648 239.501 426.577 238.813 426.471 238.103C425.892 234.106 424.32 230.319 421.899 227.089C420.832 225.654 419.628 224.327 418.304 223.125C417.595 220.839 417.005 218.517 416.536 216.169C418.135 217.094 419.655 218.148 421.083 219.321C421.972 220.057 422.816 220.846 423.609 221.685C427.575 211.358 435.527 200.78 451.213 194.847Z" fill="#27481F"/>
<path opacity="0.2" d="M426.645 244.276C426.649 244.297 426.649 244.318 426.645 244.339C426.645 244.498 426.62 244.65 426.602 244.794C426.59 244.863 426.582 244.933 426.577 245.004C426.564 245.122 426.552 245.236 426.532 245.35C426.489 245.699 426.438 246.02 426.388 246.331C426.35 246.533 426.317 246.728 426.279 246.92C426.109 247.839 425.871 248.745 425.567 249.63C423.844 249.742 422.116 249.742 420.393 249.63C420.115 247.562 419.315 239.87 421.101 230.671C421.328 229.501 421.606 228.307 421.917 227.099C424.338 230.329 425.91 234.116 426.489 238.113C426.595 238.823 426.665 239.511 426.708 240.181C426.794 241.545 426.773 242.914 426.645 244.276Z" fill="#27481F"/>
<path d="M455.475 288.659L448.069 337.193C447.668 339.811 446.344 342.198 444.336 343.923C442.329 345.648 439.77 346.597 437.123 346.596H414.894C412.249 346.593 409.693 345.643 407.686 343.919C405.679 342.195 404.355 339.809 403.952 337.193L396.543 288.659H455.475Z" fill="#FBC343"/>
<path d="M424.771 249.688C424.771 249.688 416.655 201.52 468.274 194.581C468.274 194.574 471.512 247.36 424.771 249.688Z" fill="#49883A"/>
<path opacity="0.4" d="M455.475 288.659L448.068 337.193C447.668 339.811 446.344 342.198 444.336 343.923C442.328 345.648 439.769 346.597 437.123 346.596H414.894C412.563 346.597 410.292 345.861 408.404 344.493C406.516 343.125 405.108 341.196 404.381 338.98C433.258 334.349 441.008 304.602 442.567 288.677L455.475 288.659Z" fill="#C89B35"/>
<path opacity="0.15" d="M348.154 347.542C348.154 341.617 295.396 336.811 230.31 336.811C165.225 336.811 112.466 341.614 112.466 347.542C112.466 352.345 147.176 356.42 195.019 357.785C200.23 366.339 191.533 376.569 184.867 380.259C173.164 380.843 164.762 382.148 166.086 384.926C172.34 398.07 225.501 384.084 225.501 384.084C225.501 384.084 246.287 385.378 246.287 383.399C246.287 382.489 242.627 381.657 236.605 381.025L237.05 381L214.608 358.179C219.746 358.243 224.98 358.275 230.31 358.275C295.396 358.275 348.154 353.47 348.154 347.542Z" fill="#1F3C88"/>
<path d="M358.564 268.715C357.01 294.364 344.09 319.996 322.909 334.101C297.662 350.919 262.36 347.198 233.609 349.339C208.753 351.192 183.708 352.782 158.839 350.135C138.467 347.961 117.917 339.885 108.187 320.092C98.4367 300.254 97.3808 273.897 107.131 253.818C110.227 247.502 114.335 241.737 119.294 236.75C120.09 235.934 120.918 235.138 121.757 234.362C122.326 233.836 122.903 233.32 123.487 232.815C124.384 232.036 125.306 231.278 126.241 230.54C126.551 230.287 126.859 230.059 127.175 229.822C127.491 229.584 127.802 229.346 128.117 229.111C128.433 228.876 128.749 228.644 129.07 228.416L129.79 227.911C130.189 227.624 130.593 227.346 131.002 227.076C134.631 224.632 138.444 222.472 142.407 220.618C146.22 218.818 150.153 217.287 154.178 216.035C167.258 211.973 180.916 210.532 194.413 208.757C223.05 204.996 252.208 203.702 281.073 203.732C304.628 203.732 331.152 207.271 346.901 227.494C355.798 238.917 359.453 254.104 358.564 268.715Z" fill="#EE6F57"/>
<path d="M310.072 225.39C310.072 225.39 316.134 219.68 319.368 216.374C322.601 213.067 315.561 212.961 312.1 217.079C308.64 221.197 310.072 225.39 310.072 225.39Z" fill="#F9B384"/>
<path d="M142.412 220.61C138.449 222.465 134.636 224.624 131.007 227.069C130.598 227.34 130.194 227.618 129.795 227.903L129.075 228.409C128.754 228.636 128.438 228.871 128.122 229.104C127.807 229.336 127.491 229.571 127.18 229.814C126.87 230.057 126.556 230.292 126.246 230.532C125.324 231.268 124.422 232.018 123.53 232.789L123.492 232.81C122.906 233.315 122.329 233.831 121.762 234.357C120.923 235.133 120.095 235.929 119.299 236.745C119.321 237.087 119.451 237.413 119.671 237.676C119.891 237.939 120.189 238.125 120.522 238.206C125.26 239.167 127.635 243.692 131.454 246.265C134.291 248.174 137.641 248.697 140.849 247.602C137.396 254.933 135.491 262.185 136.981 270.378C137.44 272.857 138.218 275.265 139.295 277.544C134.857 274.258 130.58 267.18 128.822 260.011C128.702 259.523 128.393 259.102 127.963 258.842C127.534 258.581 127.018 258.502 126.53 258.622C126.042 258.742 125.621 259.051 125.361 259.482C125.101 259.912 125.022 260.428 125.142 260.916C127.319 269.789 132.861 278.315 138.621 281.644C139.899 282.394 141.301 282.908 142.761 283.161C143.9 284.628 145.177 285.983 146.575 287.205L155.088 289.587L162.034 244.718L142.412 220.61Z" fill="#B35341"/>
<path d="M167.086 250.742C149.485 243.881 137.267 236.586 130.171 231.73C127.921 230.185 126.162 228.025 125.102 225.509C124.041 222.993 123.725 220.225 124.189 217.534L133.265 164.591C133.722 161.907 134.841 159.38 136.522 157.239C138.203 155.097 140.392 153.411 142.89 152.332C156.068 146.664 169.943 142.78 184.147 140.782C189.462 140.459 194.794 140.565 200.091 141.098C205.975 141.679 219.438 145.648 227.996 148.31C230.384 149.051 232.572 150.323 234.399 152.03C236.226 153.737 237.643 155.836 238.545 158.168C242.135 167.425 247.965 183.055 249.824 191.503C256.245 220.679 255.192 218.52 255.192 218.52L261.822 263.388L191.409 267.337L173.412 259.122L167.086 250.742Z" fill="#708CD5"/>
<path d="M210.67 90.3824C210.67 90.3824 204.433 77.5866 187.858 83.4309C175.859 80.8248 166.702 95.0437 175.543 114.397L192.197 118.269L210.67 90.3824Z" fill="#102048"/>
<path d="M201.829 126.563V149.2C201.829 151.747 200.818 154.19 199.018 155.992C197.218 157.793 194.776 158.805 192.23 158.805C188.785 158.805 185.481 157.435 183.045 154.997C180.609 152.559 179.24 149.252 179.239 145.805V126.563H201.829Z" fill="#F9B384"/>
<path d="M201.829 135.954V148.302C191.768 148.353 185.094 135.335 185.094 135.335L201.829 135.954Z" fill="#E28B6D"/>
<path d="M211.772 123.719C211.165 126.854 210.299 130.062 209.056 132.888C206.884 137.847 203.567 141.626 198.502 141.735C186.65 141.988 177.506 125.777 177.506 125.777L179.401 103.658L188.398 93.5472L213.196 108.868C213.163 113.851 212.686 118.821 211.772 123.719Z" fill="#F9B384"/>
<path d="M179.007 119.296C179.007 119.296 181.452 109.341 189.977 102.865C189.977 102.865 202.372 119.058 215.475 111.237C228.577 103.416 222.896 88.0139 210.66 90.3824L196.608 88.8051L179.007 94.4118L176.006 108.236L179.007 119.296Z" fill="#102048"/>
<path opacity="0.4" d="M191.447 234.01C179.507 208.191 164.454 220.514 160.771 211.035C155.608 197.751 156.588 182.723 156.56 178.173L149.369 218.697C149.369 218.697 165.427 220.213 171.363 229.9L191.447 234.01Z" fill="#1F3C88"/>
<path d="M156.927 177.481C156.48 180.949 155.952 184.402 155.411 187.845C154.871 191.288 154.257 194.733 153.686 198.178C153.115 201.624 152.456 205.052 151.781 208.479L150.753 213.616C150.382 215.325 150.036 217.036 149.634 218.737L149.114 218.646C149.321 216.91 149.584 215.183 149.819 213.451L150.614 208.272C151.156 204.824 151.738 201.381 152.36 197.943C153.004 194.511 153.597 191.07 154.282 187.645C154.967 184.22 155.641 180.795 156.409 177.385L156.927 177.481Z" fill="#1F3C88"/>
<path d="M226.69 171.073C227.645 175.575 228.529 180.089 229.393 184.609C230.257 189.129 231.065 193.656 231.904 198.181C232.743 202.706 233.49 207.243 234.253 211.781L235.355 218.606C235.696 220.881 236.059 223.156 236.365 225.431L235.88 225.517C235.375 223.27 234.945 221.012 234.478 218.757L233.159 211.983C232.309 207.463 231.478 202.938 230.666 198.408C229.891 193.874 229.07 189.349 228.335 184.806C227.6 180.264 226.855 175.724 226.198 171.169L226.69 171.073Z" fill="#1F3C88"/>
<path opacity="0.4" d="M230.027 191.97C230.868 200.186 229.605 242.736 209.819 243.368L210.029 252.638L241.182 250.742L230.027 191.97Z" fill="#1F3C88"/>
<path d="M189.346 242.21C203.398 236.207 206.083 236.429 207.975 236.523C214.449 236.839 223.763 249.794 223.763 249.794L223.606 252.162H188.083L189.346 242.21Z" fill="#E28B6D"/>
<path d="M243.392 249.847H199.662V256.482H243.392V249.847Z" fill="white"/>
<path d="M302.86 256.488H226.87L243.92 188.532H319.911L302.86 256.488Z" fill="#FBC343"/>
<path d="M309.746 228.694C302.229 227.569 277.918 222.514 227.817 253.06L226.657 257.271L302.86 256.488L309.746 228.694Z" fill="#C89B35"/>
<path d="M311.188 243.79C310.714 246.991 310.557 251.69 300.65 251.098L297.73 249.597L300.491 246.563L306.452 243.53L311.188 243.79Z" fill="#F9B384"/>
<path d="M312.123 235.153C312.123 235.153 317.544 242.231 312.095 244.422C308.397 245.863 304.459 246.587 300.491 246.556C303.017 239.445 311.226 239.92 311.226 239.92L312.123 235.153Z" fill="#F9B384"/>
<path d="M312.28 230.572C312.28 230.572 319.752 237.524 312.805 239.473C302.997 242.223 299.965 242.42 299.965 242.42C299.44 237.208 309.175 233.826 309.175 233.826L312.28 230.572Z" fill="#F9B384"/>
<path d="M310.754 224.516C310.754 224.516 320.964 230.729 311.385 234.205C301.807 237.681 299.543 237.628 299.543 237.628C299.018 232.415 309.281 230.625 309.281 230.625L310.754 224.516Z" fill="#F9B384"/>
<path d="M299.543 237.628C299.543 237.628 310.676 236.05 313.99 233.363" stroke="#E28B6D" stroke-width="2.5" stroke-miterlimit="10"/>
<path d="M299.965 242.42C299.965 242.42 311.542 240.787 315.175 238.259" stroke="#E28B6D" stroke-width="2.5" stroke-miterlimit="10"/>
<path d="M300.491 246.556C300.491 246.556 307.359 246.793 311.226 244.897" stroke="#E28B6D" stroke-width="2.5" stroke-miterlimit="10"/>
<path d="M192.662 346.167C193.819 345.535 212.133 349.536 232.447 334.476L206.24 326.998L192.662 346.167Z" fill="#102048"/>
<path d="M309.029 259.177C309.9 257.933 310.653 256.101 309.554 255.052C308.41 253.952 306.54 254.918 305.341 255.954C303.246 257.773 301.303 259.759 299.531 261.894L255.287 270.123L194.663 284.867L205.088 298.181C235.4 300.393 252.663 300.962 271.633 297.612C281.303 295.904 289.944 294.144 296.388 288.886C297.922 287.623 299.374 285.517 298.376 283.806C297.702 282.65 296.3 282.344 294.89 282.357C298.129 281.595 301.272 280.475 304.262 279.015C305.596 278.371 307.078 277.36 307.041 275.881C307.02 274.819 306.161 273.922 305.176 273.543C304.191 273.163 303.105 273.194 302.052 273.27C298.01 273.581 294.033 274.464 290.24 275.894C297.139 271.058 304.166 266.06 309.029 259.177ZM290.134 275.952C290.134 275.936 290.134 275.931 290.154 275.919C290.176 275.912 290.197 275.904 290.217 275.894C290.192 275.911 290.159 275.931 290.134 275.952Z" fill="#B35341"/>
<path d="M207.503 264.961C207.503 264.961 266.548 236.839 285.809 238.103C305.07 239.367 304.439 263.381 297.176 273.808C289.914 284.235 272.864 298.138 210.029 294.031L207.503 264.961Z" fill="#102048"/>
<path d="M237.05 381C233.854 381.905 229.32 382.125 223.081 381.131C223.081 381.131 214.997 383.23 207.04 384.88C201.655 385.997 196.33 386.902 193.61 386.819C193.375 386.819 193.142 386.801 192.902 386.781C187.678 386.41 181.098 383.685 177.607 379.792C177.607 379.792 177.595 379.766 177.582 379.761C176.654 378.763 175.946 377.58 175.503 376.291C173.608 370.388 177.612 363.229 199.293 364.701C199.293 364.701 206.447 363.02 208.134 357.749C209.822 352.479 197.399 327.208 197.399 327.208L215.081 315.201L232.447 334.476C232.447 334.476 235.079 351.854 235.079 357.542C235.079 357.542 242.443 368.075 243.498 372.709C244.173 375.666 242.695 379.4 237.05 381Z" fill="#D3DFFF"/>
<path d="M137.633 220.949C139.654 220.168 141.72 219.538 143.806 218.957C144.852 218.671 145.903 218.406 146.974 218.199C147.507 218.09 148.048 217.997 148.596 217.923C148.871 217.885 149.144 217.857 149.429 217.835C149.725 217.818 150.021 217.823 150.316 217.85C152.589 218.103 154.641 218.803 156.684 219.559C158.728 220.315 160.706 221.199 162.658 222.14C164.611 223.08 166.523 224.099 168.4 225.173C170.277 226.247 172.118 227.395 173.912 228.611C177.473 231.073 180.901 233.775 183.849 236.953L183.475 237.327C181.889 235.891 180.236 234.535 178.517 233.259C176.811 231.97 175.048 230.762 173.242 229.614C169.647 227.298 165.919 225.196 162.077 223.318C160.162 222.37 158.215 221.492 156.234 220.709C154.254 219.971 152.228 219.177 150.212 218.904C149.972 218.871 149.73 218.857 149.487 218.861C149.235 218.861 148.982 218.894 148.73 218.922C148.209 218.977 147.686 219.053 147.164 219.144C146.118 219.326 145.069 219.538 144.026 219.774C141.942 220.249 139.863 220.8 137.822 221.432L137.633 220.949Z" fill="#1F3C88"/>
<path d="M148.141 303.669C155.244 303.194 162.226 303.702 167.296 301.93C172.717 300.034 186.873 301.298 186.873 301.298L179.095 290.08L147.52 297.982L148.141 303.669Z" fill="#B35341"/>
<path d="M148.457 282.971C141.195 271.28 141.195 248.214 150.352 237.787C160.817 225.871 183.19 221.356 194.873 235.259C206.556 249.162 228.027 300.034 232.447 334.476C232.447 334.476 208.766 326.576 192.662 346.167C192.662 346.167 171.507 297.822 167.086 280.128L155.088 289.607L148.457 282.971Z" fill="#1F3C88"/>
<path d="M167.086 280.128C167.086 280.128 163.929 278.97 159.508 281.917C159.508 281.917 124.985 281.182 117.303 288.975C109.622 296.768 115.512 307.195 126.776 308.356C136.226 309.326 154.562 301.991 160.228 299.607C161.376 299.121 162.597 298.832 163.84 298.75L173.187 298.138L167.086 280.128Z" fill="#D3DFFF"/>
<path d="M180.863 119.94C180.863 119.94 178.547 112.261 173.452 114.179C168.357 116.098 171.072 126.095 181.126 128.876L180.863 119.94Z" fill="#F9B384"/>
<path d="M175.447 162.284C177.932 164.075 180.632 165.547 183.483 166.667C186.322 167.734 189.318 168.408 192.324 168.335C195.333 168.294 198.292 167.559 200.97 166.186L201.981 165.681C202.312 165.499 202.615 165.269 202.933 165.067C203.58 164.67 204.195 164.225 204.775 163.734L205.661 163.014L206.106 162.653C206.252 162.529 206.379 162.4 206.517 162.253C207.055 161.712 207.601 161.175 208.157 160.64L208.536 160.959C208.031 161.559 207.525 162.156 207.02 162.751C206.891 162.898 206.768 163.052 206.631 163.194L206.204 163.598L205.34 164.417C204.762 164.955 204.144 165.449 203.491 165.893C203.168 166.123 202.86 166.376 202.524 166.583L201.488 167.175C198.691 168.743 195.543 169.578 192.336 169.602C189.153 169.595 186.004 168.937 183.084 167.67C180.196 166.429 177.517 164.748 175.144 162.685L175.447 162.284Z" fill="#1F3C88"/>
<path d="M161.852 259.953L164.588 269.534C165.52 272.721 166.389 275.924 167.367 279.096C168.344 282.269 169.269 285.451 170.267 288.611C170.772 290.191 171.259 291.776 171.807 293.338C172.06 294.122 172.313 294.918 172.598 295.696C172.884 296.475 173.156 297.256 173.424 298.042L172.967 298.234C172.261 296.718 171.599 295.187 170.979 293.644C170.358 292.094 169.792 290.527 169.211 288.962C168.089 285.823 167.096 282.643 166.157 279.45C165.217 276.258 164.346 273.042 163.555 269.809C162.764 266.576 161.999 263.338 161.367 260.067L161.852 259.953Z" fill="#102048"/>
<path opacity="0.1" d="M237.05 381C233.854 381.905 229.32 382.125 223.081 381.131C223.081 381.131 209.713 384.559 201.266 385.901C209.95 384.162 222.58 373.419 221.158 366.627C233.632 370.735 237.024 376.976 237.05 381Z" fill="#1F3C88"/>
<path opacity="0.4" d="M203.474 382.188C201.862 384.172 199.462 385.517 196.944 386.195C195.624 386.545 194.268 386.742 192.902 386.781C187.678 386.409 181.098 383.685 177.607 379.792C177.607 379.792 177.595 379.766 177.582 379.761C177.212 379.258 176.875 378.732 176.572 378.187C178.377 379.883 180.419 381.308 182.634 382.416C183.717 382.954 184.838 383.41 185.989 383.781C186.549 383.995 187.138 384.122 187.719 384.286C188.301 384.439 188.891 384.557 189.487 384.64C194.183 385.436 199.192 384.943 203.474 382.188Z" fill="#1F3C88"/>
<path d="M178.59 121.03C178.448 120.34 178.168 119.687 177.766 119.108C177.396 118.525 176.924 118.011 176.374 117.592C175.836 117.215 175.253 117.028 174.76 117.294C174.268 117.559 173.833 118.181 173.475 118.81L173.126 118.689C173.278 117.931 173.553 117.114 174.338 116.571C174.743 116.303 175.235 116.201 175.713 116.287C176.15 116.371 176.564 116.551 176.923 116.816C177.575 117.31 178.104 117.949 178.466 118.684C178.865 119.393 179.041 120.206 178.971 121.017L178.59 121.03Z" fill="#E28B6D"/>
<path d="M208.632 120.838C208.41 121.927 207.589 122.68 206.798 122.521C206.007 122.362 205.548 121.346 205.77 120.246C205.992 119.146 206.811 118.403 207.601 118.565C208.392 118.727 208.852 119.748 208.632 120.838Z" fill="#102048"/>
<path d="M196.322 120.356C196.501 119.258 196.001 118.262 195.205 118.132C194.409 118.002 193.619 118.787 193.44 119.886C193.261 120.984 193.761 121.979 194.557 122.109C195.353 122.239 196.143 121.454 196.322 120.356Z" fill="#102048"/>
<path d="M201.549 121.844C201.625 122.741 201.66 123.633 201.67 124.508C201.72 124.859 201.885 125.184 202.14 125.431C202.47 125.76 202.777 126.113 203.057 126.487C203.214 126.717 203.325 126.974 203.385 127.246C203.443 127.509 203.461 127.78 203.438 128.049C203.397 128.587 203.194 129.1 202.857 129.521C202.677 129.731 202.457 129.903 202.208 130.026C201.956 130.142 201.68 130.2 201.402 130.195C200.9 130.165 200.417 129.989 200.013 129.69L200.187 129.364C200.561 129.513 200.966 129.571 201.367 129.531C201.536 129.508 201.699 129.449 201.843 129.356C201.986 129.264 202.108 129.14 202.198 128.995C202.584 128.418 202.64 127.519 202.269 126.973C202.074 126.662 201.763 126.368 201.445 125.982C201.079 125.571 200.872 125.043 200.862 124.493C200.93 123.575 201.041 122.675 201.18 121.78L201.549 121.844Z" fill="#E28B6D"/>
<path d="M191.369 116.553C191.879 116.042 192.478 115.629 193.137 115.334C193.825 115.018 194.579 114.874 195.335 114.912C196.104 114.962 196.843 115.233 197.462 115.693C198.048 116.133 198.533 116.694 198.881 117.339L198.588 117.567C198.108 117.124 197.586 116.73 197.03 116.389C196.496 116.081 195.901 115.897 195.287 115.85C194.062 115.757 192.816 116.242 191.599 116.846L191.369 116.553Z" fill="#102048"/>
<path d="M204.219 117.635C204.462 116.967 204.959 116.422 205.6 116.118C206.226 115.801 206.921 115.646 207.621 115.666C208.321 115.677 209.007 115.866 209.614 116.214C210.221 116.559 210.699 117.091 210.978 117.731L210.668 117.933C209.853 117.112 208.752 116.641 207.596 116.619C206.48 116.593 205.295 116.902 204.565 117.807L204.219 117.635Z" fill="#102048"/>
<path d="M195.598 132.473L203.974 133.072C203.974 133.072 199.303 139.273 195.598 132.473Z" fill="white"/>
<path opacity="0.4" d="M211.772 123.719C211.165 126.854 210.299 130.062 209.056 132.888C208.064 132.416 207.262 131.621 206.781 130.633C206.3 129.644 206.17 128.522 206.412 127.45C206.653 126.377 207.252 125.419 208.11 124.733C208.968 124.047 210.034 123.673 211.133 123.674C211.347 123.672 211.56 123.688 211.772 123.719Z" fill="#EE6F57"/>
<path opacity="0.4" d="M192.328 131.873C194.793 130.837 195.953 127.997 194.917 125.529C193.882 123.062 191.043 121.901 188.578 122.938C186.112 123.974 184.952 126.814 185.988 129.282C187.023 131.749 189.862 132.91 192.328 131.873Z" fill="#EE6F57"/>
<path d="M122.358 117.827C127.801 111.79 130.839 103.963 130.894 95.833C130.95 87.7025 128.02 79.8347 122.661 73.7237C117.302 67.6128 109.886 63.6843 101.823 62.6844C93.7597 61.6845 85.6103 63.6828 78.9225 68.2998C72.2346 72.9168 67.4741 79.8309 65.5451 87.7291C63.616 95.6272 64.6528 103.959 68.4584 111.143C72.2641 118.326 78.5736 123.861 86.1886 126.696C93.8037 129.531 102.194 129.468 109.766 126.52L127.564 133.79L122.358 117.827Z" fill="white" stroke="#8CBFBE" stroke-width="3.5" stroke-miterlimit="10"/>
<path d="M82.9419 99.9426C84.8978 99.9426 86.4834 98.3559 86.4834 96.3986C86.4834 94.4413 84.8978 92.8546 82.9419 92.8546C80.986 92.8546 79.4004 94.4413 79.4004 96.3986C79.4004 98.3559 80.986 99.9426 82.9419 99.9426Z" fill="#8CBFBE"/>
<path d="M97.747 99.9426C99.703 99.9426 101.289 98.3559 101.289 96.3986C101.289 94.4413 99.703 92.8546 97.747 92.8546C95.7911 92.8546 94.2056 94.4413 94.2056 96.3986C94.2056 98.3559 95.7911 99.9426 97.747 99.9426Z" fill="#8CBFBE"/>
<path d="M112.552 99.9426C114.508 99.9426 116.093 98.3559 116.093 96.3986C116.093 94.4413 114.508 92.8546 112.552 92.8546C110.596 92.8546 109.01 94.4413 109.01 96.3986C109.01 98.3559 110.596 99.9426 112.552 99.9426Z" fill="#8CBFBE"/>
<path d="M207.134 2H141.92C140.138 2.00534 138.431 2.71608 137.172 3.97694C135.912 5.23779 135.202 6.94626 135.198 8.72904V36.7321C135.202 38.5149 135.912 40.2234 137.172 41.4842C138.431 42.7451 140.138 43.4558 141.92 43.4612H147.942L157.73 58.1832L160.64 43.4612H207.134C208.916 43.4558 210.623 42.7452 211.883 41.4844C213.143 40.2236 213.853 38.5152 213.858 36.7321V8.72904C213.853 6.94602 213.143 5.23757 211.883 3.97678C210.623 2.716 208.916 2.00533 207.134 2Z" fill="white" stroke="#8CBFBE" stroke-width="3.5" stroke-miterlimit="10"/>
<path d="M202.458 12.1947H146.598V15.405H202.458V12.1947Z" fill="#8CBFBE"/>
<path d="M202.458 20.6603H146.598V23.8706H202.458V20.6603Z" fill="#C6EAE9"/>
<path d="M202.458 29.1285H146.598V32.3388H202.458V29.1285Z" fill="#C6EAE9"/>
</svg>
