<svg width="26" height="26" viewBox="0 0 26 26" fill="none" xmlns="http://www.w3.org/2000/svg">
<path d="M12.9788 25C19.6063 25 24.9788 19.6275 24.9788 13C24.9788 6.37259 19.6063 1 12.9788 1C6.35135 1 0.97876 6.37259 0.97876 13C0.97876 19.6275 6.35135 25 12.9788 25Z" stroke="#292D32" stroke-width="1.71429" stroke-linecap="round" stroke-linejoin="round"/>
<path d="M12.9787 14.8461C15.5277 14.8461 17.5941 12.7797 17.5941 10.2307C17.5941 7.68174 15.5277 5.61536 12.9787 5.61536C10.4297 5.61536 8.36328 7.68174 8.36328 10.2307C8.36328 12.7797 10.4297 14.8461 12.9787 14.8461Z" stroke="#292D32" stroke-width="1.71429" stroke-linecap="round" stroke-linejoin="round"/>
<path d="M5.0957 22.0461C5.91953 20.6938 7.07738 19.5761 8.45794 18.8007C9.83849 18.0251 11.3953 17.6178 12.9788 17.6178C14.5622 17.6178 16.1191 18.0251 17.4996 18.8007C18.8802 19.5761 20.038 20.6938 20.8619 22.0461" stroke="#292D32" stroke-width="1.71429" stroke-linecap="round" stroke-linejoin="round"/>
</svg>
